<svg xmlns="http://www.w3.org/2000/svg" width="447.107" height="370.389" viewBox="0 0 118.297 97.999">
  <g>
    <path d="m50.28 105.458 109.048.147-.127 95.748-116.067-.156.127-95.74 7.018.01z" style="fill:none;stroke:#d3d3d3;stroke-width:2.1;stroke-dasharray:none" transform="translate(-42.082 -104.406)"/>
    <path d="M63.439 193.08v7.984H43.322V179.19H63.44v3.533M70.795 166.302v12.823h-27.46v-35.987h27.46v12.808" style="fill:none;stroke:#d3d3d3;stroke-width:1.5;stroke-dasharray:none" transform="translate(-42.082 -104.406)"/>
    <path d="M74.759 143.2H43.445v-37.475h45.461V143.2h-3.288M88.915 146.252v-40.475h70.023v54.45H88.915v-3.62M88.926 163.61v-3.354h70.001v41.055h-70v-27.346" style="fill:none;stroke:#d3d3d3;stroke-width:1.5;stroke-dasharray:none" transform="translate(-42.082 -104.406)"/>
  </g>
  <path d="M88.312 146.086h1.202v10.731h-1.202z" style="fill:none;stroke:#d3d3d3;stroke-width:.3;stroke-dasharray:none" transform="translate(-42.082 -104.406)"/>
  <path d="M-143.802 74.862h1.202v10.731h-1.202z" style="fill:none;stroke:#d3d3d3;stroke-width:.3;stroke-dasharray:none" transform="rotate(-90 -73.244 -31.162)"/>
  <path d="M70.19 155.728h1.208v10.73H70.19zM88.326 163.425h1.202v10.731h-1.202zM62.844 182.53h1.192v10.732h-1.192z" style="fill:none;stroke:#d3d3d3;stroke-width:.3;stroke-dasharray:none" transform="translate(-42.082 -104.406)"/>
</svg>
